<svg width="41" height="41" viewBox="0 0 41 41" fill="none" xmlns="http://www.w3.org/2000/svg">
<path fill-rule="evenodd" clip-rule="evenodd" d="M1.00037 39.303L3.69437 29.468C2.03237 26.59 1.15837 23.324 1.15937 19.979C1.16437 9.514 9.68037 1 20.1464 1C25.2254 1.002 29.9914 2.979 33.5764 6.566C37.1604 10.154 39.1344 14.922 39.1324 19.994C39.1284 30.459 30.6104 38.974 20.1464 38.974H20.1384C16.9614 38.973 13.8384 38.176 11.0654 36.663L1.00037 39.303Z" fill="white"/>
<path fill-rule="evenodd" clip-rule="evenodd" d="M1.00036 39.803C0.868356 39.803 0.740356 39.751 0.645356 39.655C0.520356 39.528 0.471356 39.343 0.518356 39.172L3.15736 29.536C1.52136 26.63 0.658356 23.33 0.660356 19.98C0.664356 9.238 9.40536 0.5 20.1464 0.5C25.3564 0.502 30.2514 2.531 33.9304 6.213C37.6094 9.896 39.6344 14.79 39.6324 19.994C39.6284 30.735 30.8864 39.474 20.1464 39.474C16.9574 39.473 13.8024 38.686 11.0024 37.197L1.12736 39.786C1.08536 39.798 1.04336 39.803 1.00036 39.803Z" fill="white"/>
<path fill-rule="evenodd" clip-rule="evenodd" d="M20.1464 1C25.2254 1.002 29.9914 2.979 33.5764 6.566C37.1604 10.154 39.1344 14.922 39.1324 19.994C39.1284 30.459 30.6104 38.974 20.1464 38.974H20.1384C16.9614 38.973 13.8384 38.176 11.0654 36.663L1.00041 39.303L3.69441 29.468C2.03241 26.59 1.15841 23.324 1.15941 19.979C1.16441 9.514 9.68041 1 20.1464 1ZM20.1464 0C9.13041 0 0.164411 8.962 0.159411 19.979C0.158411 23.346 1.00841 26.664 2.62041 29.601L0.0354115 39.04C-0.0585885 39.385 0.0374114 39.753 0.289411 40.007C0.479411 40.199 0.736411 40.304 1.00041 40.304C1.08541 40.304 1.17041 40.293 1.25441 40.271L10.9414 37.731C13.7694 39.199 16.9394 39.974 20.1384 39.975C31.1624 39.975 40.1284 31.012 40.1334 19.995C40.1354 14.656 38.0584 9.636 34.2854 5.86C30.5104 2.083 25.4894 0.002 20.1464 0Z" fill="#CFD8DC"/>
<path fill-rule="evenodd" clip-rule="evenodd" d="M31.3084 8.83205C28.3284 5.85005 24.3674 4.20705 20.1514 4.20605C11.4474 4.20605 4.36838 11.2821 4.36438 19.9801C4.36338 22.9611 5.19738 25.8631 6.77738 28.3761L7.15338 28.9731L5.55838 34.7941L11.5314 33.2281L12.1084 33.5701C14.5304 35.0081 17.3084 35.7681 20.1404 35.7691H20.1464C28.8444 35.7691 35.9234 28.6921 35.9264 19.9931C35.9274 15.7781 34.2884 11.8141 31.3084 8.83205Z" fill="#40C351"/>
<path fill-rule="evenodd" clip-rule="evenodd" d="M15.4004 12.0449C15.0454 11.2549 14.6714 11.2389 14.3324 11.2249C14.0554 11.2129 13.7394 11.2139 13.4234 11.2139C13.1074 11.2139 12.5934 11.3329 12.1584 11.8079C11.7234 12.2829 10.4974 13.4299 10.4974 15.7639C10.4974 18.0979 12.1974 20.3539 12.4344 20.6699C12.6714 20.9859 15.7164 25.9289 20.5384 27.8309C24.5454 29.4109 25.3614 29.0969 26.2314 29.0179C27.1014 28.9389 29.0384 27.8709 29.4334 26.7629C29.8284 25.6549 29.8284 24.7059 29.7104 24.5079C29.5914 24.3099 29.2754 24.1919 28.8014 23.9539C28.3274 23.7159 25.9944 22.5689 25.5594 22.4109C25.1244 22.2529 24.8084 22.1739 24.4914 22.6489C24.1754 23.1229 23.2664 24.1919 22.9894 24.5079C22.7124 24.8249 22.4354 24.8649 21.9614 24.6269C21.4874 24.3889 19.9594 23.8889 18.1464 22.2729C16.7364 21.0159 15.7844 19.4629 15.5074 18.9879C15.2304 18.5139 15.4774 18.2569 15.7154 18.0199C15.9284 17.8069 16.1894 17.4659 16.4274 17.1889C16.6644 16.9119 16.7434 16.7139 16.9014 16.3979C17.0594 16.0809 16.9804 15.8039 16.8614 15.5669C16.7444 15.3289 15.8224 12.9829 15.4004 12.0449Z" fill="white"/>
</svg>
